@startuml

skinparam componentStyle uml2

package "'Usuario' Aggregate" <<Rectangle>> {
	class Usuario <<(A,#fffab8) Aggregate Root>> {
		String username
		UsuarioId id
		Email emailAddress
		SenhaHash passwordHash
	}
	class UsuarioId <<(V,DarkSeaGreen) Value Object>> {
		Long valor
	}
	class Email <<(V,DarkSeaGreen) Value Object>> {
		String endereco
	}
	class SenhaHash <<(V,DarkSeaGreen) Value Object>> {
		String valor
	}
}
package "'Link' Aggregate" <<Rectangle>> {
	class Link <<(A,#fffab8) Aggregate Root>> {
		boolean monitorado
		LinkId id
		URL linkAddress
		UsuarioId userId
	}
	class LinkId <<(V,DarkSeaGreen) Value Object>> {
		Long valor
	}
	class URL <<(V,DarkSeaGreen) Value Object>> {
		String valor
	}
	class UserService <<(S,DarkSeaGreen) Service>> {
		Usuario registrarUsuario(String username, String emailAddress, String password)
		Usuario carregarUsuario(String username)
	}
	class SecurityService <<(S,DarkSeaGreen) Service>> {
		boolean autenticar(String username, String password)
		String gerarTokenJWT(Usuario usuario)
	}
	class LinkService <<(S,DarkSeaGreen) Service>> {
		Link adicionarLink(UsuarioId userId, URL linkUrl)
		List<Link> listarLinks(UsuarioId userId)
		void deletarLink(LinkId linkId)
	}
}
Link --> URL : linkAddress
Link --> LinkId : id
Usuario --> SenhaHash : passwordHash
Usuario --> UsuarioId : id
Link --> UsuarioId : userId
Usuario --> Email : emailAddress
legend left
  This bounded context implements the subdomain 'GerenciamentoContas'.
  This bounded context implements the subdomain 'GerenciamentoLinks'.
end legend


@enduml
